<svg xmlns="http://www.w3.org/2000/svg" width="32" height="32" viewBox="0 0 32 32"><g fill="none" stroke="#bc0926" stroke-width="1" stroke-linecap="round" stroke-linejoin="round"><path d="M 8.423 2.876 A 1.330 1.330 0 0 1 9.088 2.698 L 22.912 2.698 A 1.330 1.330 0 0 1 24.064 3.363 L 30.976 15.335 A 1.330 1.330 0 0 1 30.976 16.665 L 24.064 28.637 A 1.330 1.330 0 0 1 22.912 29.302 L 9.088 29.302 A 1.330 1.330 0 0 1 7.936 28.637 L 1.024 16.665 A 1.330 1.330 0 0 1 1.024 15.335 L 7.936 3.363 A 1.330 1.330 0 0 1 8.423 2.876 Z" stroke-dasharray="92.302" stroke-dashoffset="92.302"><animate attributeName="stroke-dashoffset" fill="freeze" dur="0.750s" values="92.302;0"/></path><line x1="8.423" y1="2.876" x2="23.577" y2="29.124" stroke-dasharray="31.308" stroke-dashoffset="31.308"><animate attributeName="stroke-dashoffset" fill="freeze" dur="0.375s" values="31.308;0"/></line><line x1="23.577" y1="2.876" x2="16.000" y2="16.000" stroke-dasharray="16.154" stroke-dashoffset="16.154"><animate attributeName="stroke-dashoffset" fill="freeze" dur="0.188s" begin="0.125s" values="16.154;0"/></line><line x1="29.824" y1="18.660" x2="17.690" y2="13.074" stroke-dasharray="14.359" stroke-dashoffset="14.359"><animate attributeName="stroke-dashoffset" fill="freeze" dur="0.188s" begin="0.275s" values="14.359;0"/></line></g></svg>