<svg xmlns="http://www.w3.org/2000/svg" width="10" height="10" viewBox="0 0 10 10"><g fill="none" stroke="currentColor" stroke-width="1" stroke-linecap="round" stroke-linejoin="round"><path d="M 2.780 1.155 A 0.390 0.390 0 0 1 2.975 1.103 L 7.025 1.103 A 0.390 0.390 0 0 1 7.362 1.298 L 9.387 4.805 A 0.390 0.390 0 0 1 9.387 5.195 L 7.362 8.702 A 0.390 0.390 0 0 1 7.025 8.897 L 2.975 8.897 A 0.390 0.390 0 0 1 2.638 8.702 L 0.612 5.195 A 0.390 0.390 0 0 1 0.612 4.805 L 2.638 1.298 A 0.390 0.390 0 0 1 2.780 1.155 Z" stroke-dasharray="27.749" stroke-dashoffset="27.749"><animate attributeName="stroke-dashoffset" fill="freeze" dur="0.750s" values="27.749;0"/></path><line x1="2.780" y1="1.155" x2="7.220" y2="8.845" stroke-dasharray="9.879" stroke-dashoffset="9.879"><animate attributeName="stroke-dashoffset" fill="freeze" dur="0.375s" values="9.879;0"/></line><line x1="7.220" y1="1.155" x2="5.000" y2="5.000" stroke-dasharray="5.440" stroke-dashoffset="5.440"><animate attributeName="stroke-dashoffset" fill="freeze" dur="0.188s" begin="0.125s" values="5.440;0"/></line><line x1="9.050" y1="5.779" x2="5.495" y2="4.143" stroke-dasharray="4.914" stroke-dashoffset="4.914"><animate attributeName="stroke-dashoffset" fill="freeze" dur="0.188s" begin="0.275s" values="4.914;0"/></line></g></svg>