<svg xmlns="http://www.w3.org/2000/svg" width="16" height="16" viewBox="0 0 16 16"><g fill="none" stroke="#bc0926" stroke-width="1" stroke-linecap="round" stroke-linejoin="round"><path d="M 4.300 1.592 A 0.650 0.650 0 0 1 4.625 1.505 L 11.375 1.505 A 0.650 0.650 0 0 1 11.938 1.830 L 15.313 7.675 A 0.650 0.650 0 0 1 15.313 8.325 L 11.938 14.170 A 0.650 0.650 0 0 1 11.375 14.495 L 4.625 14.495 A 0.650 0.650 0 0 1 4.063 14.170 L 0.688 8.325 A 0.650 0.650 0 0 1 0.688 7.675 L 4.063 1.830 A 0.650 0.650 0 0 1 4.300 1.592 Z" stroke-dasharray="45.581" stroke-dashoffset="45.581"><animate attributeName="stroke-dashoffset" fill="freeze" dur="0.750s" values="45.581;0"/></path><line x1="4.300" y1="1.592" x2="11.700" y2="14.408" stroke-dasharray="15.799" stroke-dashoffset="15.799"><animate attributeName="stroke-dashoffset" fill="freeze" dur="0.375s" values="15.799;0"/></line><line x1="11.700" y1="1.592" x2="8.000" y2="8.000" stroke-dasharray="8.400" stroke-dashoffset="8.400"><animate attributeName="stroke-dashoffset" fill="freeze" dur="0.188s" begin="0.125s" values="8.400;0"/></line><line x1="14.750" y1="9.299" x2="8.825" y2="6.571" stroke-dasharray="7.523" stroke-dashoffset="7.523"><animate attributeName="stroke-dashoffset" fill="freeze" dur="0.188s" begin="0.275s" values="7.523;0"/></line></g></svg>