<svg xmlns="http://www.w3.org/2000/svg" width="8" height="8" viewBox="0 0 8 8"><g fill="none" stroke="currentColor" stroke-width="1" stroke-linecap="round" stroke-linejoin="round"><path d="M 2.273 1.010 A 0.303 0.303 0 0 1 2.425 0.969 L 5.575 0.969 A 0.303 0.303 0 0 1 5.838 1.120 L 7.412 3.848 A 0.303 0.303 0 0 1 7.412 4.152 L 5.838 6.880 A 0.303 0.303 0 0 1 5.575 7.031 L 2.425 7.031 A 0.303 0.303 0 0 1 2.163 6.880 L 0.588 4.152 A 0.303 0.303 0 0 1 0.588 3.848 L 2.163 1.120 A 0.303 0.303 0 0 1 2.273 1.010 Z" stroke-dasharray="21.804" stroke-dashoffset="43.609"><animate attributeName="stroke-dashoffset" fill="freeze" dur="0.750s" values="43.609;21.804"/></path><line x1="2.273" y1="1.010" x2="5.727" y2="6.990" stroke-dasharray="7.906" stroke-dashoffset="15.812"><animate attributeName="stroke-dashoffset" fill="freeze" dur="0.375s" values="15.812;7.906"/></line><line x1="5.727" y1="1.010" x2="4.000" y2="4.000" stroke-dasharray="4.453" stroke-dashoffset="8.906"><animate attributeName="stroke-dashoffset" fill="freeze" dur="0.188s" begin="0.125s" values="8.906;4.453"/></line><line x1="7.150" y1="4.606" x2="4.385" y2="3.333" stroke-dasharray="4.044" stroke-dashoffset="8.088"><animate attributeName="stroke-dashoffset" fill="freeze" dur="0.188s" begin="0.275s" values="8.088;4.044"/></line></g></svg>