<svg xmlns="http://www.w3.org/2000/svg" width="16" height="16" viewBox="0 0 16 16"><g fill="none" stroke="currentColor" stroke-width="1" stroke-linecap="round" stroke-linejoin="round"><path d="M 4.300 1.592 A 0.650 0.650 0 0 1 4.625 1.505 L 11.375 1.505 A 0.650 0.650 0 0 1 11.938 1.830 L 15.313 7.675 A 0.650 0.650 0 0 1 15.313 8.325 L 11.938 14.170 A 0.650 0.650 0 0 1 11.375 14.495 L 4.625 14.495 A 0.650 0.650 0 0 1 4.063 14.170 L 0.688 8.325 A 0.650 0.650 0 0 1 0.688 7.675 L 4.063 1.830 A 0.650 0.650 0 0 1 4.300 1.592 Z"/><line x1="4.300" y1="1.592" x2="11.700" y2="14.408"/><line x1="11.700" y1="1.592" x2="8.000" y2="8.000"/><line x1="14.750" y1="9.299" x2="8.825" y2="6.571"/></g></svg>