<svg xmlns="http://www.w3.org/2000/svg" width="8" height="8" viewBox="0 0 8 8"><g fill="none" stroke="#bc0926" stroke-width="1" stroke-linecap="round" stroke-linejoin="round"><path d="M 2.273 1.010 A 0.303 0.303 0 0 1 2.425 0.969 L 5.575 0.969 A 0.303 0.303 0 0 1 5.838 1.120 L 7.412 3.848 A 0.303 0.303 0 0 1 7.412 4.152 L 5.838 6.880 A 0.303 0.303 0 0 1 5.575 7.031 L 2.425 7.031 A 0.303 0.303 0 0 1 2.163 6.880 L 0.588 4.152 A 0.303 0.303 0 0 1 0.588 3.848 L 2.163 1.120 A 0.303 0.303 0 0 1 2.273 1.010 Z"/><line x1="2.273" y1="1.010" x2="5.727" y2="6.990"/><line x1="5.727" y1="1.010" x2="4.000" y2="4.000"/><line x1="7.150" y1="4.606" x2="4.385" y2="3.333"/></g></svg>