<svg xmlns="http://www.w3.org/2000/svg" width="24" height="24" viewBox="0 0 24 24"><g fill="none" stroke="currentColor" stroke-width="1" stroke-linecap="round" stroke-linejoin="round"><path d="M 6.327 2.174 A 0.996 0.996 0 0 1 6.825 2.041 L 17.175 2.041 A 0.996 0.996 0 0 1 18.038 2.539 L 23.212 11.502 A 0.996 0.996 0 0 1 23.212 12.498 L 18.038 21.461 A 0.996 0.996 0 0 1 17.175 21.959 L 6.825 21.959 A 0.996 0.996 0 0 1 5.963 21.461 L 0.787 12.498 A 0.996 0.996 0 0 1 0.787 11.502 L 5.963 2.539 A 0.996 0.996 0 0 1 6.327 2.174 Z"/><line x1="6.327" y1="2.174" x2="17.673" y2="21.826"/><line x1="17.673" y1="2.174" x2="12.000" y2="12.000"/><line x1="22.350" y1="13.992" x2="13.265" y2="9.809"/></g></svg>