<?xml version="1.0" encoding="UTF-8" standalone="no"?>
<svg
   width="32"
   height="32"
   viewBox="0 0 32 32"
   version="1.1"
   id="svg3"
   sodipodi:docname="konnex-logo.svg"
   xml:space="preserve"
   inkscape:version="1.4 (e7c3feb100, 2024-10-09)"
   xmlns:inkscape="http://www.inkscape.org/namespaces/inkscape"
   xmlns:sodipodi="http://sodipodi.sourceforge.net/DTD/sodipodi-0.dtd"
   xmlns="http://www.w3.org/2000/svg"
   xmlns:svg="http://www.w3.org/2000/svg"><defs
     id="defs3" /><sodipodi:namedview
     id="namedview3"
     pagecolor="#505050"
     bordercolor="#ffffff"
     borderopacity="1"
     inkscape:showpageshadow="0"
     inkscape:pageopacity="0"
     inkscape:pagecheckerboard="1"
     inkscape:deskcolor="#505050"
     inkscape:zoom="11.354299"
     inkscape:cx="36.726177"
     inkscape:cy="7.706332"
     inkscape:window-width="1920"
     inkscape:window-height="1008"
     inkscape:window-x="0"
     inkscape:window-y="0"
     inkscape:window-maximized="1"
     inkscape:current-layer="layer2" /><g
     fill="none"
     stroke="currentColor"
     stroke-width="1"
     stroke-linecap="round"
     stroke-linejoin="round"
     id="g3"
     transform="matrix(0.97445455,0,0,0.97445455,0.40872727,-1.7438508)"
     style="display:inline"><path
       d="M 8.423,2.876 A 1.33,1.33 0 0 1 9.088,2.698 h 13.824 a 1.33,1.33 0 0 1 1.152,0.665 l 6.912,11.972 a 1.33,1.33 0 0 1 0,1.33 l -6.912,11.972 a 1.33,1.33 0 0 1 -1.152,0.665 H 9.088 A 1.33,1.33 0 0 1 7.936,28.637 L 1.024,16.665 a 1.33,1.33 0 0 1 0,-1.33 L 7.936,3.363 A 1.33,1.33 0 0 1 8.423,2.876 Z"
       id="path1" /><line
       x1="8.4230003"
       y1="2.8759999"
       x2="23.577"
       y2="29.124001"
       id="line1" /><line
       x1="23.577"
       y1="2.8759999"
       x2="16"
       y2="16"
       id="line2" /><line
       x1="29.823999"
       y1="18.66"
       x2="17.690001"
       y2="13.074"
       id="line3" /></g><g
     inkscape:groupmode="layer"
     id="layer2"
     inkscape:label="konnex"
     style="display:inline"><path
       d="m 6.1957302,30.886453 q 0.027491,0.05956 -0.013746,0.128293 -0.036655,0.06415 -0.1099653,0.06873 -0.3940426,0.02749 -0.7835032,0.04124 -0.077892,0 -0.1099654,-0.06415 -0.2382583,-0.384879 -0.5498268,-0.865978 -0.087056,-0.137456 -0.1374567,-0.293241 0,0.545245 0.00916,1.095072 0,0.05498 -0.036655,0.09164 -0.036655,0.03665 -0.091638,0.03665 -0.3986244,-0.0092 -0.7972488,-0.04124 -0.050401,-0.0046 -0.091638,-0.04124 -0.036655,-0.04124 -0.041237,-0.09622 -0.082474,-1.512023 0,-3.024047 0.00458,-0.0504 0.041237,-0.09164 0.041237,-0.04124 0.091638,-0.04582 0.3986244,-0.02749 0.7972488,-0.04124 0.054983,0 0.091638,0.03665 0.036655,0.03665 0.036655,0.09164 -0.00916,0.646047 -0.00916,1.287511 0.027491,-0.08706 0.068728,-0.16953 0.3573875,-0.72852 0.5727363,-1.186709 0.036655,-0.05956 0.1099654,-0.05956 0.3894606,0.0092 0.7789213,0.04124 0.077892,0.0046 0.1145472,0.07331 0.041237,0.06415 0.00458,0.123711 -0.2428402,0.5315 -0.7972489,1.663227 0.5773182,0.843067 0.8522316,1.241692 z m 1.9702105,-3.179832 q 0.9805245,0.0046 1.4432954,0.568154 0.3573874,0.444444 0.3528055,1.172964 0.00458,0.723939 -0.3528055,1.168382 Q 9.1464652,31.179694 8.1659407,31.184276 7.19458,31.179694 6.7272272,30.616121 6.3652579,30.167096 6.3698398,29.447739 6.3652579,28.723801 6.7272272,28.274775 7.19458,27.711203 8.1659407,27.706621 Z m 0,2.547531 q 0.1512023,0 0.2611677,-0.04582 0.1099654,-0.0504 0.1695299,-0.123711 0.059565,-0.07331 0.09622,-0.183276 0.036655,-0.114547 0.045819,-0.215348 0.013746,-0.105384 0.013746,-0.238259 0,-0.137456 -0.013746,-0.238258 -0.00916,-0.105383 -0.045819,-0.215349 -0.036655,-0.114547 -0.09622,-0.187857 -0.059565,-0.07331 -0.1695299,-0.119129 -0.1099654,-0.0504 -0.2611677,-0.0504 -0.1512024,0 -0.2611678,0.0504 -0.1099653,0.04582 -0.1741118,0.119129 -0.059565,0.07331 -0.09622,0.187857 -0.032073,0.109966 -0.045819,0.215349 -0.00916,0.100802 -0.00916,0.238258 0,0.132875 0.00916,0.238259 0.013746,0.100801 0.045819,0.215348 0.036655,0.114548 0.09622,0.187858 0.064147,0.06873 0.1741118,0.119129 0.1099654,0.04582 0.2611678,0.04582 z m 4.0274833,-0.875141 q 0,-0.746848 -0.01833,-1.493696 0,-0.05498 0.03665,-0.09164 0.03665,-0.04124 0.09164,-0.03665 0.398624,0.0092 0.797249,0.03665 0.0504,0.0046 0.08706,0.04582 0.04124,0.04124 0.04582,0.09164 0.09164,1.512023 0,3.024047 0,0.02749 -0.01375,0.0504 -0.0092,0.02291 -0.02749,0.04124 -0.01833,0.01833 -0.04582,0.02749 -0.02291,0.01375 -0.04582,0.01833 -0.430698,0.02749 -0.856814,0.03665 -0.06873,0.0046 -0.105383,-0.05498 -0.325314,-0.522335 -0.957615,-1.493696 0,0.710193 0.01375,1.420386 0,0.05498 -0.03666,0.09164 -0.03665,0.03665 -0.08705,0.03665 -0.398625,-0.01375 -0.797249,-0.03665 -0.05498,-0.0046 -0.09622,-0.04582 -0.03665,-0.04124 -0.04124,-0.09164 -0.09164,-1.512024 0,-3.024047 0.0046,-0.0504 0.04124,-0.09164 0.04124,-0.04124 0.09622,-0.04582 0.394042,-0.02749 0.788085,-0.03665 0.06873,-0.0046 0.100801,0.05498 0.33906,0.531499 1.030926,1.567006 z m 3.42725,0 q 0,-0.746848 -0.01833,-1.493696 0,-0.05498 0.03665,-0.09164 0.03665,-0.04124 0.09164,-0.03665 0.398624,0.0092 0.797249,0.03665 0.0504,0.0046 0.08706,0.04582 0.04124,0.04124 0.04582,0.09164 0.09164,1.512023 0,3.024047 0,0.02749 -0.01375,0.0504 -0.0092,0.02291 -0.02749,0.04124 -0.01833,0.01833 -0.04582,0.02749 -0.02291,0.01375 -0.04582,0.01833 -0.430698,0.02749 -0.856814,0.03665 -0.06873,0.0046 -0.105383,-0.05498 -0.325314,-0.522335 -0.957615,-1.493696 0,0.710193 0.01375,1.420386 0,0.05498 -0.03666,0.09164 -0.03665,0.03665 -0.08706,0.03665 -0.398624,-0.01375 -0.797248,-0.03665 -0.05498,-0.0046 -0.09622,-0.04582 -0.03665,-0.04124 -0.04124,-0.09164 -0.09164,-1.512024 0,-3.024047 0.0046,-0.0504 0.04124,-0.09164 0.04124,-0.04124 0.09622,-0.04582 0.394042,-0.02749 0.788085,-0.03665 0.06873,-0.0046 0.100801,0.05498 0.33906,0.531499 1.030926,1.567006 z m 3.418087,-0.765176 q -0.476517,-0.02291 -0.957615,-0.02291 0,0.306987 0,0.458189 0.407788,0 0.815576,0.0092 0.05498,0 0.09164,0.04124 0.04124,0.03665 0.04124,0.08706 0,0.288659 0,0.572736 0,0.05498 -0.04124,0.09622 -0.03665,0.03665 -0.09164,0.03665 -0.407788,0.0092 -0.815576,0.0092 0,0.19244 0,0.389461 0.481098,0 0.957615,-0.02291 0.05498,-0.0046 0.09164,0.03207 0.03666,0.03665 0.03666,0.08706 -0.0092,0.284077 -0.01833,0.568154 -0.0046,0.0504 -0.04582,0.09164 -0.03665,0.04124 -0.08706,0.04582 -0.930124,0.09164 -1.860247,0 -0.0504,-0.0046 -0.09164,-0.04582 -0.03665,-0.04124 -0.03665,-0.09164 -0.06415,-1.512024 0,-3.024047 0,-0.0504 0.03665,-0.09164 0.04124,-0.04124 0.09164,-0.04582 0.930123,-0.09164 1.860247,0 0.0504,0.0046 0.08706,0.04582 0.04124,0.04124 0.04582,0.09164 0.0092,0.284077 0.01833,0.563572 0,0.0504 -0.03666,0.08706 -0.03665,0.03665 -0.09164,0.03207 z m 1.919813,-0.0092 q 0.229094,-0.444444 0.398624,-0.788086 0.03665,-0.06415 0.109965,-0.06415 0.421534,0.01375 0.838486,0.04124 0.07331,0.0092 0.114548,0.07789 0.04124,0.06415 0.0046,0.123711 -0.279496,0.476517 -0.888887,1.466205 0.591064,0.957615 0.870559,1.42955 0.03665,0.05956 -0.0046,0.128293 -0.04124,0.06873 -0.114547,0.07331 -0.416952,0.02749 -0.833904,0.04124 -0.07331,0 -0.109966,-0.06415 -0.164948,-0.329896 -0.384878,-0.75143 -0.233677,0.421534 -0.407789,0.756012 -0.03665,0.05956 -0.105383,0.05956 -0.41237,-0.01375 -0.82474,-0.04124 -0.07331,-0.0046 -0.114547,-0.07331 -0.04124,-0.06873 -0.0046,-0.128293 0.274913,-0.476517 0.865977,-1.438714 -0.609392,-0.980524 -0.888887,-1.457041 -0.03665,-0.05956 0.0046,-0.123711 0.04124,-0.06873 0.114547,-0.07789 0.41237,-0.02749 0.829322,-0.04124 0.06873,0 0.105384,0.05956 0.183275,0.348223 0.426116,0.792667 z"
       id="text1"
       style="font-weight:550;font-size:4.58189px;font-family:Plumpfull;-inkscape-font-specification:'Plumpfull weight=550';fill:currentColor;stroke-width:0.381825"
       aria-label="KONNEX" /></g></svg>
