<svg xmlns="http://www.w3.org/2000/svg" width="12" height="12" viewBox="0 0 12 12"><g fill="none" stroke="#bc0926" stroke-width="1" stroke-linecap="round" stroke-linejoin="round"><path d="M 3.287 1.301 A 0.476 0.476 0 0 1 3.525 1.237 L 8.475 1.237 A 0.476 0.476 0 0 1 8.887 1.475 L 11.363 5.762 A 0.476 0.476 0 0 1 11.363 6.238 L 8.887 10.525 A 0.476 0.476 0 0 1 8.475 10.763 L 3.525 10.763 A 0.476 0.476 0 0 1 3.113 10.525 L 0.638 6.238 A 0.476 0.476 0 0 1 0.638 5.762 L 3.113 1.475 A 0.476 0.476 0 0 1 3.287 1.301 Z" stroke-dasharray="33.693" stroke-dashoffset="33.693"><animate attributeName="stroke-dashoffset" fill="freeze" dur="0.750s" values="33.693;0"/></path><line x1="3.287" y1="1.301" x2="8.713" y2="10.699" stroke-dasharray="11.853" stroke-dashoffset="11.853"><animate attributeName="stroke-dashoffset" fill="freeze" dur="0.375s" values="11.853;0"/></line><line x1="8.713" y1="1.301" x2="6.000" y2="6.000" stroke-dasharray="6.426" stroke-dashoffset="6.426"><animate attributeName="stroke-dashoffset" fill="freeze" dur="0.188s" begin="0.125s" values="6.426;0"/></line><line x1="10.950" y1="6.953" x2="6.605" y2="4.952" stroke-dasharray="5.783" stroke-dashoffset="5.783"><animate attributeName="stroke-dashoffset" fill="freeze" dur="0.188s" begin="0.275s" values="5.783;0"/></line></g></svg>